<svg width="64" height="64" viewBox="0 0 64 64" fill="none" xmlns="http://www.w3.org/2000/svg">
  <rect width="64" height="64" rx="18" fill="#FAF8F4"/>
  <circle cx="42" cy="21" r="10" fill="#E8E2D6"/>
  <path d="M45.5 11.8C39.8 13.1 35.6 18.2 35.6 24.3C35.6 27.2 36.6 29.9 38.2 32.1C34.5 30.7 31.9 27.1 31.9 22.9C31.9 17.7 35.9 13.3 41 12.7C42.5 12.5 44 12.5 45.5 11.8Z" fill="#7C9885"/>
  <path d="M20.7 42.3C14 35.6 14.6 24.1 22.2 17.1C28.1 23 29.2 32.3 24.8 39.3L20.7 42.3Z" fill="#A9C2B6"/>
  <path d="M22.2 17.1C29.8 18.8 36.3 26 36.8 34.9C30.9 36.7 25.4 35.2 21.2 31.1C22.1 26.4 22.4 21.8 22.2 17.1Z" fill="#7C9885"/>
  <path d="M19.9 45.7C24.1 37.6 30.5 31.1 38.7 27" stroke="#5F7A68" stroke-width="3.2" stroke-linecap="round"/>
  <path d="M17.5 47.7C24.2 51.5 33.5 50.9 40.1 44.3C35.3 39.2 27.4 38.1 21.4 42L17.5 47.7Z" fill="#D98B7A"/>
  <path d="M20.1 45.8C25.4 42.8 31.4 42.1 37.5 43.8" stroke="#8F4F43" stroke-width="2.4" stroke-linecap="round"/>
</svg>
